<svg xmlns="http://www.w3.org/2000/svg" width="488.138" height="2682.742" viewBox="0 0 488.138 2682.742">
  <g id="bullshitlineee" transform="translate(488.138) rotate(90)">
    <path id="Path_3" data-name="Path 3" d="M0,290.409C1082.035,291.567,1599.276,330.023,1960.457,270,2454.864,187.837,2566.1,0,2566.1,0V412.758H0Z" fill="#ffd500" style="mix-blend-mode: soft-light;isolation: isolate"/>
    <path id="Path_2" data-name="Path 2" d="M0,115c600.153.966,734.871-70.333,1204.465-58.212,185.906-25.424,514.363-29.174,767.607-39.394C2274.884,5.173,2509.853,0,2509.853,0L1705.525,237.349H0Z" transform="translate(14.742 218)" fill="#f3df7c" style="mix-blend-mode: color-burn;isolation: isolate"/>
    <path id="Path_1" data-name="Path 1" d="M0,215.878C2502.376,218.629,2601.329-51.534,2657.692,8.785s0,330.092,0,330.092H0Z" transform="translate(0 149.262)" fill="#f9df5c"/>
  </g>
</svg>
